# xmcd
# 
# Track frame offsets:
#     150
#     23587
#     44498
#     64217
#     91260
#     127872
#     136247
# 
# Disc length: 2146
# 
# Revision: 0
# Processed by: cddbd v1.5.2PL0 Copyright (c) Steve Scherf et al.
# Submitted via: BonkEnc v1.0.8
# 
DISCID=54086007
DTITLE=Various Artist - Miso Mix-Tape One
DYEAR=0
DGENRE=
TTITLE0=Vessel - Avalanche Minor
TTITLE1=Efterklang - Step Aside
TTITLE2=Marcia Blaine School For Girls - No Signs, No Bins
TTITLE3=Christ - Cordate
TTITLE4=Toman - Deportivo
TTITLE5=Magnetophone and King Creosote - Quagmire
TTITLE6=Blindfold - Thokubornin 
EXTD=
EXTT0=
EXTT1=
EXTT2=
EXTT3=
EXTT4=
EXTT5=
EXTT6=
PLAYORDER=
